<svg xmlns="http://www.w3.org/2000/svg" xmlns:xlink="http://www.w3.org/1999/xlink" width="500" zoomAndPan="magnify" viewBox="0 0 375 374.999991" height="500" preserveAspectRatio="xMidYMid meet" version="1.0"><defs><clipPath id="66eabf4c22"><path d="M 25.773438 97.476562 L 349.023438 97.476562 L 349.023438 286.476562 L 25.773438 286.476562 Z M 25.773438 97.476562 " clip-rule="nonzero"/></clipPath><clipPath id="c82653978b"><path d="M 164 139.511719 L 301 139.511719 L 301 219 L 164 219 Z M 164 139.511719 " clip-rule="nonzero"/></clipPath><clipPath id="2cd824056c"><path d="M 74 139.511719 L 211 139.511719 L 211 219 L 74 219 Z M 74 139.511719 " clip-rule="nonzero"/></clipPath></defs><path fill="#ffef9f" d="M 75.101562 283.0625 C 72.941406 283.0625 70.960938 281.765625 70.050781 279.757812 C 69.191406 277.859375 69.449219 275.710938 70.714844 274.070312 L 86.445312 247.878906 L 58.609375 247.222656 C 42.34375 246.851562 29.109375 233.277344 29.109375 216.972656 L 29.109375 146.324219 C 29.109375 140.46875 30.789062 134.777344 33.96875 129.871094 C 36.289062 126.304688 39.359375 123.226562 42.851562 120.953125 C 47.199219 118.097656 52.28125 116.421875 57.535156 116.109375 L 313.71875 100.996094 C 314.320312 100.964844 314.921875 100.945312 315.519531 100.945312 C 332.164062 100.945312 345.703125 114.523438 345.703125 131.210938 L 345.703125 223.023438 C 345.703125 228.90625 344.019531 234.601562 340.839844 239.496094 C 338.558594 243.015625 335.476562 246.097656 331.925781 248.40625 C 327.035156 251.59375 321.351562 253.28125 315.488281 253.285156 L 314.792969 253.273438 L 130.773438 248.9375 L 77.546875 282.503906 L 77.300781 282.609375 C 76.589844 282.910156 75.851562 283.0625 75.101562 283.0625 Z M 75.101562 283.0625 " fill-opacity="1" fill-rule="nonzero"/><g clip-path="url(#66eabf4c22)"><path fill="#000000" d="M 315.519531 104.289062 C 330.242188 104.289062 342.367188 116.257812 342.367188 131.210938 L 342.367188 223.023438 C 342.367188 228.433594 340.777344 233.46875 338.042969 237.671875 C 335.992188 240.839844 333.273438 243.546875 330.109375 245.601562 C 325.902344 248.34375 320.878906 249.9375 315.488281 249.9375 C 315.28125 249.9375 315.074219 249.9375 314.867188 249.933594 L 130.464844 245.585938 C 130.433594 245.585938 130.402344 245.582031 130.371094 245.582031 C 130.085938 245.582031 129.816406 245.648438 129.542969 245.761719 L 75.996094 279.53125 C 75.691406 279.664062 75.390625 279.722656 75.101562 279.722656 C 73.347656 279.722656 72.117188 277.53125 73.453125 276 L 90.09375 248.292969 C 91.335938 246.875 90.367188 244.628906 88.476562 244.582031 L 58.691406 243.882812 C 44.097656 243.546875 32.449219 231.589844 32.449219 216.972656 L 32.449219 146.324219 C 32.449219 140.941406 34.039062 135.910156 36.773438 131.6875 C 38.824219 128.535156 41.507812 125.816406 44.671875 123.761719 C 48.457031 121.277344 52.90625 119.730469 57.738281 119.445312 L 313.914062 104.335938 C 314.449219 104.304688 314.988281 104.289062 315.515625 104.289062 M 315.519531 97.601562 L 315.515625 97.601562 C 314.855469 97.601562 314.183594 97.621094 313.523438 97.660156 L 57.34375 112.769531 C 51.507812 113.117188 45.863281 114.984375 41.011719 118.167969 C 37.15625 120.671875 33.746094 124.09375 31.179688 128.042969 C 27.640625 133.503906 25.773438 139.824219 25.773438 146.324219 L 25.773438 216.972656 C 25.773438 235.085938 40.472656 250.152344 58.539062 250.570312 L 80.628906 251.089844 L 67.949219 272.195312 C 66.03125 274.796875 65.660156 278.160156 67.015625 281.140625 C 68.464844 284.339844 71.640625 286.410156 75.105469 286.410156 C 76.300781 286.410156 77.480469 286.167969 78.601562 285.691406 L 79.097656 285.480469 L 79.554688 285.195312 L 131.703125 252.304688 L 314.714844 256.617188 C 314.980469 256.625 315.238281 256.628906 315.492188 256.628906 C 322 256.628906 328.316406 254.753906 333.753906 251.207031 C 337.6875 248.65625 341.109375 245.230469 343.644531 241.308594 C 347.171875 235.886719 349.042969 229.558594 349.042969 223.023438 L 349.042969 131.210938 C 349.042969 112.679688 334.007812 97.601562 315.523438 97.601562 Z M 315.519531 97.601562 " fill-opacity="1" fill-rule="nonzero"/></g><path fill="#ffe41d" d="M 334.417969 139.175781 L 334.417969 230.984375 C 334.417969 236.382812 332.828125 241.398438 330.109375 245.601562 C 325.742188 248.449219 320.496094 250.058594 314.867188 249.933594 L 130.464844 245.585938 C 130.148438 245.566406 129.847656 245.632812 129.542969 245.761719 L 75.996094 279.53125 C 73.820312 280.457031 71.898438 277.78125 73.453125 276 L 90.09375 248.292969 C 91.335938 246.875 90.367188 244.628906 88.476562 244.582031 L 58.691406 243.882812 C 44.097656 243.546875 32.449219 231.589844 32.449219 216.972656 L 32.449219 146.324219 C 32.449219 140.941406 34.039062 135.910156 36.773438 131.6875 C 40.539062 129.222656 44.972656 127.691406 49.789062 127.40625 L 305.96875 112.296875 C 321.402344 111.386719 334.421875 123.679688 334.421875 139.175781 Z M 334.417969 139.175781 " fill-opacity="1" fill-rule="nonzero"/><g clip-path="url(#c82653978b)"><path fill="#000000" d="M 266.171875 139.898438 L 265.84375 139.902344 L 206.917969 144.308594 L 199.03125 145.53125 L 191.933594 147.417969 L 185.625 149.964844 L 180.105469 153.179688 C 176.6875 155.542969 173.796875 158.347656 171.433594 161.597656 L 168.28125 166.804688 C 166.441406 170.496094 165.128906 174.628906 164.34375 179.207031 L 180.558594 204.578125 C 200.160156 214.695312 216.53125 219.433594 229.675781 218.800781 C 237.730469 218.800781 245.285156 218.15625 252.335938 216.867188 C 259.886719 215.667969 265.9375 213.640625 270.496094 210.785156 C 281.546875 203.898438 291.285156 193.109375 299.703125 178.417969 C 301.285156 174.371094 300.992188 170.105469 298.824219 165.617188 C 297.640625 162.953125 293.644531 157.609375 286.839844 149.578125 C 282.269531 142.863281 275.378906 139.636719 266.171875 139.898438 " fill-opacity="1" fill-rule="nonzero"/></g><g clip-path="url(#2cd824056c)"><path fill="#000000" d="M 108.90625 139.898438 L 109.234375 139.902344 L 168.160156 144.308594 L 176.046875 145.53125 L 183.144531 147.417969 L 189.453125 149.964844 L 194.972656 153.179688 C 198.390625 155.542969 201.28125 158.347656 203.644531 161.597656 L 206.796875 166.804688 C 208.636719 170.496094 209.949219 174.628906 210.734375 179.207031 L 194.519531 204.578125 C 174.917969 214.695312 158.546875 219.433594 145.402344 218.800781 C 137.347656 218.800781 129.792969 218.15625 122.742188 216.867188 C 115.191406 215.667969 109.140625 213.640625 104.582031 210.785156 C 93.53125 203.898438 83.792969 193.109375 75.375 178.417969 C 73.792969 174.371094 74.085938 170.105469 76.253906 165.617188 C 77.4375 162.953125 81.433594 157.609375 88.238281 149.578125 C 92.808594 142.863281 99.699219 139.636719 108.90625 139.898438 " fill-opacity="1" fill-rule="nonzero"/></g><path fill="#fefefe" d="M 245.65625 164.996094 L 244.554688 165.011719 C 243.417969 165.023438 241.894531 165.121094 239.988281 165.308594 L 230.234375 166.585938 C 226.335938 167.273438 223.226562 168.039062 220.910156 168.875 C 211.324219 172.253906 205.171875 175.957031 202.449219 179.980469 C 200.140625 183.027344 201.394531 185.828125 206.214844 188.386719 C 211.808594 190.605469 218.972656 191.65625 227.699219 191.53125 C 235.785156 191.398438 243.800781 190.160156 251.757812 187.8125 C 256.722656 186.394531 260.679688 184.902344 263.628906 183.328125 C 266.246094 181.925781 268.054688 180.453125 269.050781 178.910156 C 269.957031 177.355469 270.179688 176.15625 269.714844 175.3125 C 269.1875 173.460938 267.992188 171.808594 266.132812 170.359375 C 263.726562 168.828125 260.816406 167.527344 257.398438 166.460938 C 251.789062 165.3125 247.871094 164.824219 245.65625 164.996094 " fill-opacity="1" fill-rule="nonzero"/><path fill="#fefefe" d="M 129.421875 164.996094 L 130.523438 165.011719 C 131.660156 165.023438 133.183594 165.121094 135.089844 165.308594 L 144.84375 166.585938 C 148.742188 167.273438 151.851562 168.039062 154.167969 168.875 C 163.753906 172.253906 169.90625 175.957031 172.628906 179.980469 C 174.9375 183.027344 173.683594 185.828125 168.863281 188.386719 C 163.269531 190.605469 156.105469 191.65625 147.378906 191.53125 C 139.292969 191.398438 131.277344 190.160156 123.320312 187.8125 C 118.355469 186.394531 114.398438 184.902344 111.449219 183.328125 C 108.832031 181.925781 107.023438 180.453125 106.027344 178.910156 C 105.121094 177.355469 104.898438 176.15625 105.363281 175.3125 C 105.890625 173.460938 107.085938 171.808594 108.945312 170.359375 C 111.351562 168.828125 114.261719 167.527344 117.679688 166.460938 C 123.289062 165.3125 127.207031 164.824219 129.421875 164.996094 " fill-opacity="1" fill-rule="nonzero"/></svg>