<svg xmlns="http://www.w3.org/2000/svg" xmlns:xlink="http://www.w3.org/1999/xlink" width="800" zoomAndPan="magnify" viewBox="0 0 600 374.999991" height="500" preserveAspectRatio="xMidYMid meet" version="1.0"><defs><clipPath id="54a6bba883"><path d="M 3.800781 20.496094 L 596.195312 20.496094 L 596.195312 366.1875 L 3.800781 366.1875 Z M 3.800781 20.496094 " clip-rule="nonzero"/></clipPath></defs><path fill="#ffef9f" d="M 94.203125 359.949219 C 90.246094 359.949219 86.617188 357.578125 84.945312 353.902344 C 83.371094 350.429688 83.847656 346.503906 86.164062 343.5 L 114.996094 295.59375 L 63.980469 294.394531 C 34.167969 293.714844 9.914062 268.890625 9.914062 239.0625 L 9.914062 109.839844 C 9.914062 99.128906 12.992188 88.722656 18.824219 79.746094 C 23.070312 73.226562 28.699219 67.589844 35.101562 63.4375 C 43.070312 58.214844 52.382812 55.144531 62.007812 54.574219 L 531.496094 26.9375 C 532.601562 26.871094 533.707031 26.839844 534.796875 26.839844 C 565.296875 26.839844 590.113281 51.675781 590.113281 82.203125 L 590.113281 250.128906 C 590.113281 260.890625 587.03125 271.3125 581.199219 280.261719 C 577.023438 286.699219 571.375 292.335938 564.867188 296.558594 C 555.902344 302.390625 545.484375 305.476562 534.742188 305.480469 L 533.46875 305.464844 L 196.230469 297.527344 L 98.683594 358.929688 L 98.230469 359.121094 C 96.933594 359.671875 95.578125 359.949219 94.203125 359.949219 Z M 94.203125 359.949219 " fill-opacity="1" fill-rule="nonzero"/><g clip-path="url(#54a6bba883)"><path fill="#000000" d="M 534.796875 32.953125 C 561.777344 32.953125 583.996094 54.847656 583.996094 82.203125 L 583.996094 250.128906 C 583.996094 260.03125 581.085938 269.234375 576.074219 276.921875 C 572.3125 282.714844 567.335938 287.667969 561.535156 291.425781 C 553.824219 296.445312 544.621094 299.359375 534.742188 299.359375 C 534.363281 299.359375 533.984375 299.359375 533.605469 299.347656 L 195.664062 291.398438 C 195.605469 291.398438 195.546875 291.394531 195.488281 291.394531 C 194.96875 291.394531 194.472656 291.511719 193.976562 291.71875 L 95.84375 353.492188 C 95.285156 353.730469 94.730469 353.835938 94.203125 353.835938 C 90.988281 353.835938 88.730469 349.828125 91.183594 347.027344 L 121.679688 296.351562 C 123.953125 293.757812 122.175781 289.652344 118.710938 289.566406 L 64.125 288.285156 C 37.386719 287.671875 16.035156 265.800781 16.035156 239.066406 L 16.035156 109.839844 C 16.035156 99.996094 18.949219 90.789062 23.960938 83.074219 C 27.71875 77.304688 32.640625 72.328125 38.4375 68.570312 C 45.371094 64.023438 53.527344 61.199219 62.382812 60.675781 L 531.855469 33.039062 C 532.839844 32.980469 533.824219 32.953125 534.792969 32.953125 M 534.796875 20.722656 L 534.792969 20.722656 C 533.582031 20.722656 532.351562 20.757812 531.136719 20.828125 L 61.65625 48.46875 C 50.964844 49.101562 40.617188 52.515625 31.730469 58.34375 C 24.664062 62.921875 18.417969 69.179688 13.710938 76.402344 C 7.226562 86.390625 3.804688 97.949219 3.804688 109.839844 L 3.804688 239.066406 C 3.804688 272.191406 30.738281 299.753906 63.847656 300.515625 L 104.332031 301.464844 L 81.09375 340.074219 C 77.578125 344.832031 76.902344 350.976562 79.378906 356.429688 C 82.039062 362.285156 87.859375 366.070312 94.207031 366.070312 C 96.402344 366.070312 98.558594 365.628906 100.617188 364.757812 L 101.527344 364.371094 L 102.367188 363.847656 L 197.929688 303.691406 L 533.324219 311.582031 C 533.808594 311.59375 534.28125 311.59375 534.75 311.59375 C 546.675781 311.59375 558.253906 308.167969 568.214844 301.683594 C 575.421875 297.011719 581.695312 290.746094 586.34375 283.578125 C 592.808594 273.65625 596.234375 262.082031 596.234375 250.132812 L 596.234375 82.203125 C 596.234375 48.300781 568.679688 20.722656 534.804688 20.722656 Z M 534.796875 20.722656 " fill-opacity="1" fill-rule="nonzero"/></g><path fill="#ffe41d" d="M 569.433594 96.761719 L 569.433594 264.691406 C 569.433594 274.5625 566.523438 283.738281 561.539062 291.425781 C 553.53125 296.640625 543.917969 299.582031 533.605469 299.347656 L 195.664062 291.398438 C 195.082031 291.367188 194.53125 291.488281 193.976562 291.71875 L 95.84375 353.492188 C 91.851562 355.179688 88.328125 350.289062 91.183594 347.027344 L 121.679688 296.351562 C 123.953125 293.757812 122.175781 289.652344 118.710938 289.566406 L 64.125 288.285156 C 37.386719 287.671875 16.035156 265.800781 16.035156 239.066406 L 16.035156 109.839844 C 16.035156 99.996094 18.949219 90.789062 23.960938 83.074219 C 30.863281 78.558594 38.988281 75.761719 47.816406 75.238281 L 517.296875 47.601562 C 545.582031 45.941406 569.4375 68.425781 569.4375 96.761719 Z M 569.433594 96.761719 " fill-opacity="1" fill-rule="nonzero"/><path fill="#000000" d="M 467.792969 90.75 L 467.128906 90.75 L 347.875 99.703125 L 331.910156 102.183594 L 317.542969 106.011719 L 304.773438 111.1875 L 293.605469 117.710938 C 286.6875 122.511719 280.839844 128.207031 276.054688 134.804688 L 269.675781 145.375 C 265.953125 152.871094 263.300781 161.265625 261.710938 170.558594 L 294.527344 222.078125 C 334.195312 242.617188 367.332031 252.242188 393.933594 250.957031 C 410.230469 250.957031 425.515625 249.648438 439.789062 247.027344 C 455.070312 244.597656 467.320312 240.480469 476.542969 234.679688 C 498.910156 220.695312 518.613281 198.789062 535.652344 168.960938 C 538.855469 160.742188 538.265625 152.078125 533.875 142.96875 C 531.476562 137.558594 523.394531 126.703125 509.625 110.398438 C 500.367188 96.765625 486.425781 90.214844 467.792969 90.75 " fill-opacity="1" fill-rule="nonzero"/><path fill="#000000" d="M 149.511719 90.75 L 150.171875 90.75 L 269.429688 99.703125 L 285.390625 102.183594 L 299.757812 106.011719 L 312.527344 111.1875 L 323.699219 117.710938 C 330.613281 122.511719 336.464844 128.207031 341.25 134.804688 L 347.628906 145.375 C 351.347656 152.871094 354.003906 161.265625 355.59375 170.558594 L 322.777344 222.078125 C 283.109375 242.617188 249.972656 252.242188 223.371094 250.957031 C 207.070312 250.957031 191.785156 249.648438 177.511719 247.027344 C 162.234375 244.597656 149.980469 240.480469 140.757812 234.679688 C 118.390625 220.695312 98.6875 198.789062 81.648438 168.960938 C 78.445312 160.742188 79.039062 152.078125 83.425781 142.96875 C 85.824219 137.558594 93.90625 126.703125 107.679688 110.398438 C 116.933594 96.765625 130.878906 90.214844 149.511719 90.75 " fill-opacity="1" fill-rule="nonzero"/><path fill="#fefefe" d="M 426.265625 141.707031 L 424.046875 141.734375 C 421.742188 141.757812 418.660156 141.957031 414.796875 142.335938 L 395.0625 144.9375 C 387.167969 146.332031 380.875 147.878906 376.1875 149.582031 C 356.789062 156.441406 344.335938 163.957031 338.824219 172.128906 C 334.152344 178.316406 336.695312 184.007812 346.449219 189.195312 C 357.773438 193.707031 372.265625 195.835938 389.929688 195.585938 C 406.289062 195.316406 422.519531 192.796875 438.617188 188.03125 C 448.664062 185.15625 456.675781 182.121094 462.648438 178.933594 C 467.941406 176.085938 471.597656 173.09375 473.617188 169.960938 C 475.453125 166.800781 475.898438 164.367188 474.960938 162.652344 C 473.894531 158.890625 471.476562 155.539062 467.710938 152.597656 C 462.84375 149.480469 456.953125 146.84375 450.035156 144.675781 C 438.679688 142.347656 430.757812 141.359375 426.265625 141.707031 " fill-opacity="1" fill-rule="nonzero"/><path fill="#fefefe" d="M 191.035156 141.707031 L 193.257812 141.734375 C 195.558594 141.757812 198.644531 141.957031 202.503906 142.335938 L 222.238281 144.9375 C 230.136719 146.332031 236.425781 147.878906 241.117188 149.582031 C 260.511719 156.441406 272.964844 163.957031 278.480469 172.128906 C 283.148438 178.316406 280.605469 184.007812 270.851562 189.195312 C 259.53125 193.707031 245.039062 195.835938 227.371094 195.585938 C 211.011719 195.316406 194.78125 192.796875 178.683594 188.03125 C 168.636719 185.15625 160.628906 182.121094 154.65625 178.933594 C 149.359375 176.085938 145.703125 173.09375 143.683594 169.960938 C 141.847656 166.800781 141.402344 164.367188 142.339844 162.652344 C 143.410156 158.890625 145.824219 155.539062 149.59375 152.597656 C 154.460938 149.480469 160.351562 146.84375 167.265625 144.675781 C 178.621094 142.347656 186.546875 141.359375 191.035156 141.707031 " fill-opacity="1" fill-rule="nonzero"/></svg>